<svg width="40" height="40" fill="none" xmlns="http://www.w3.org/2000/svg"><rect width="40" height="40" rx="5" fill="url(#paint0_linear)"/><path d="M20 8.012c-4.915 0-9.582-.437-11.365 4.134-.737 1.889-.63 4.341-.63 7.852 0 3.081-.098 5.977.63 7.85 1.779 4.575 6.484 4.137 11.363 4.137 4.706 0 9.56.49 11.364-4.136.737-1.907.63-4.323.63-7.85 0-4.683.258-7.706-2.015-9.976-2.301-2.3-5.413-2.011-9.982-2.011H20zm-1.075 2.16c10.253-.017 11.558-1.155 10.838 14.666-.256 5.596-4.52 4.982-9.761 4.982-9.557 0-9.832-.274-9.832-9.827 0-9.664.758-9.816 8.755-9.824v.003zm7.478 1.99a1.439 1.439 0 100 2.877 1.439 1.439 0 000-2.878zM20 13.841a6.158 6.158 0 00-6.159 6.156c0 3.4 2.758 6.155 6.16 6.155a6.155 6.155 0 100-12.31zm0 2.16c5.286 0 5.293 7.992 0 7.992-5.284 0-5.293-7.991 0-7.991z" fill="#fff"/><defs><linearGradient id="paint0_linear" x1="2.686" y1="37.394" x2="39.748" y2="5.31" gradientUnits="userSpaceOnUse"><stop stop-color="#FD5"/><stop offset=".5" stop-color="#FF543E"/><stop offset="1" stop-color="#C837AB"/></linearGradient></defs></svg>