<svg width="78" height="70" fill="none" xmlns="http://www.w3.org/2000/svg"><path d="M40.632 64.597c6.368-3.631 29.336-17.953 32.12-37.03C74.487 15.662 65.916 4.405 53.89 4.035a19.648 19.648 0 00-13.435 4.728 2.226 2.226 0 01-2.913 0A19.648 19.648 0 0024.11 4.035c-12.026.37-20.597 11.627-18.86 23.532C8.03 46.644 31 60.966 37.369 64.597a3.284 3.284 0 003.263 0z" fill="#FF8087"/><path d="M72.956 23.77a16.613 16.613 0 01-.204 2.109C69.969 42.699 47 55.325 40.632 58.527a3.67 3.67 0 01-3.264 0C31 55.325 8.032 42.7 5.248 25.88a16.608 16.608 0 01-.204-2.109c-.043 1.25.018 2.52.205 3.797 2.782 19.078 25.75 33.399 32.12 37.03a3.284 3.284 0 003.263 0c6.368-3.631 29.336-17.952 32.12-37.03.186-1.278.247-2.547.204-3.797z" fill="#E6646E"/><path d="M68.883 10.343c-3.813-4.55-9.126-7.153-14.96-7.333A20.719 20.719 0 0039.79 7.984a1.195 1.195 0 01-1.58 0A20.72 20.72 0 0024.077 3.01c-5.834.18-11.147 2.784-14.96 7.333-4.015 4.79-5.795 11.122-4.883 17.372 2.83 19.399 25.688 33.817 32.626 37.773.66.377 1.4.565 2.14.565.74 0 1.48-.188 2.14-.565 2.94-1.676 10.539-6.286 17.595-12.864 8.753-8.159 13.81-16.54 15.031-24.909.912-6.25-.868-12.582-4.883-17.372zm2.854 17.076c-1.152 7.897-5.997 15.872-14.4 23.705C50.438 57.555 43 62.066 40.124 63.707a2.248 2.248 0 01-2.248 0C35 62.066 27.562 57.555 20.663 51.124 12.26 43.291 7.415 35.315 6.263 27.42c-.827-5.672.786-11.416 4.426-15.759 3.432-4.094 8.21-6.439 13.452-6.6a18.669 18.669 0 0112.736 4.483 3.25 3.25 0 004.246 0A18.674 18.674 0 0153.859 5.06c5.243.161 10.02 2.506 13.452 6.6 3.64 4.343 5.253 10.087 4.426 15.759z" fill="#333"/><path d="M50.607 33.143c-15.332 5.663-13.943 9.582-13.943 9.582a4.494 4.494 0 00-5.5-3.007 4.312 4.312 0 00-1.307.62l-1.92 1.536a33.753 33.753 0 00-1.236-1.886 1.56 1.56 0 00-2.814 1.125c.131.923.723 3.61.827 4.056l.02.084.103.256a3.22 3.22 0 001.117 1.338 3.321 3.321 0 003.446.203l1.844-.973 1.758 5.544c.758 2.392 3.247 3.788 5.677 3.165 5.682-1.455 15.687-6.5 22.47-22.998a4.236 4.236 0 011.015-1.438l-11.557 2.793z" fill="#F7D291"/><path d="M53.979 33.628c6.554 0 11.867-5.314 11.867-11.868S60.533 9.893 53.979 9.893c-6.554 0-11.868 5.313-11.868 11.867 0 6.554 5.314 11.868 11.868 11.868z" fill="#F7D291"/><path d="M43.621 36.136c-7.866 4.004-6.957 6.589-6.957 6.589l.121.38.427 1.506a2.108 2.108 0 002.649 1.436c2.23-.674 5.91-2.408 9.54-6.778-2.072-.736-4-1.7-5.78-3.133z" fill="#F0C382"/><path d="M44.648 35.615l-7.635-6.523a1.709 1.709 0 00-2.408 2.409l7.29 8.533c.133.154.309.282.512.36 0 0 2.313.993 6.623 1.13l2.785-4.62c-2.967-.99-6.023-1.333-7.167-1.289z" fill="#F7D291"/><path d="M50.563 20.893a.925.925 0 00-1.292.212c-.241.337-.711.546-1.226.546s-.985-.21-1.226-.546a.925.925 0 00-1.504 1.08c.592.824 1.613 1.316 2.73 1.316s2.138-.492 2.73-1.316a.926.926 0 00-.212-1.292z" fill="#333"/><path d="M32.093 4.875c-.452-.45-1.177-.033-1.474.325-1.978 2.39-1.935 4.5-1.286 7.915.24 1.264.773 2.33 1.288 3.359 1.106 2.21 1.979 3.955-.087 7.178-1.967 3.07-2.52 6.567-1.56 9.844.57 1.945 1.654 3.69 3.163 5.139a5.252 5.252 0 00-2.334.652 8.39 8.39 0 00-.46.286.91.91 0 00-.062.045l-1.111.889a26.282 26.282 0 00-.715-1.056 2.482 2.482 0 00-2.368-1.014 2.488 2.488 0 00-2.113 2.808c.137.974.744 3.723.843 4.147 0 0 .044.168.06.209l.104.256a4.03 4.03 0 00.378.681 4.228 4.228 0 003.98 1.797 4.344 4.344 0 001.495-.464l.865-.457 1.423 4.49a5.67 5.67 0 005.393 3.958c.462 0 .93-.057 1.397-.176 5.6-1.434 16.048-6.4 23.098-23.544.162-.394.43-.77.797-1.12 2.842-2.712 4.268-6.521 3.911-10.453-.537-5.92-5.197-10.755-11.08-11.497-3.987-.502-7.889.825-10.706 3.643-2.817 2.817-4.145 6.719-3.642 10.705.347 2.752 1.635 5.37 3.627 7.37a12.887 12.887 0 003.531 2.508c-.669.293-1.48.587-2.318.888-.391.142-.797.289-1.21.443l-7.302-6.238a2.62 2.62 0 00-3.422-.001 2.616 2.616 0 00-.915 1.796 2.616 2.616 0 00.623 1.917l4.833 5.656c-.75.56-1.406 1.16-1.976 1.808-3.055-1.442-5.187-3.778-6.012-6.592-.807-2.755-.33-5.712 1.344-8.325 2.632-4.11 1.331-6.71.183-9.004-.48-.959-.933-1.865-1.125-2.877-.54-2.846-.716-4.444.894-6.389.499-.602.499-1.054.047-1.505zm7.85 34.295l1.255 1.47c.235.273.534.485.867.614.26.108 2.665 1.062 6.94 1.197h.03a.925.925 0 00.028-1.85c-4.049-.128-6.267-1.047-6.287-1.055a1.014 1.014 0 00-.037-.015.349.349 0 01-.137-.096l-7.29-8.534a.778.778 0 01-.186-.57.778.778 0 01.272-.534.788.788 0 011.017 0l7.635 6.524c.177.151.405.23.637.22 1.92-.074 3.95.24 6.032.934a.925.925 0 00.585-1.756c-.78-.26-1.556-.47-2.324-.633.695-.293 1.287-.594 1.754-.942.506.133 1.02.233 1.539.3.894.116 1.795.141 2.68.075a.925.925 0 00-.14-1.845c-.758.057-1.533.035-2.302-.065-2.079-.269-3.993-1.158-5.549-2.466.873-.336 1.582-.951 1.97-1.738a.926.926 0 00-1.66-.82c-.237.483-.786.849-1.434.956a2.344 2.344 0 01-.409.03 10.782 10.782 0 01-2.303-5.382c-.43-3.415.705-6.755 3.115-9.165 2.41-2.41 5.75-3.545 9.165-3.115 5.028.633 9.01 4.766 9.47 9.827.305 3.367-.915 6.627-3.346 8.946-.556.53-.97 1.121-1.231 1.756-6.743 16.398-16.581 21.107-21.846 22.455-1.949.5-3.955-.62-4.566-2.548L32.128 45.8a.925.925 0 00-1.314-.539l-1.838.97a2.469 2.469 0 01-.85.267 2.383 2.383 0 01-2.241-1.008 2.2 2.2 0 01-.194-.342l-.074-.186c-.125-.537-.69-3.119-.81-3.976a.635.635 0 011.144-.457c.403.564.771 1.141 1.2 1.835a.926.926 0 001.365.236l1.89-1.51a3.411 3.411 0 011.013-.478 3.529 3.529 0 011.548-.083 3.59 3.59 0 012.499 1.738c.134.24.24.486.32.741l.116.366.952 3.36a.925.925 0 101.78-.505l-.955-3.373a.94.94 0 00-.009-.029l-.119-.373a5.494 5.494 0 00-.221-.59c.657-1.003 1.518-1.892 2.612-2.694z" fill="#333"/></svg>