<svg width="100" height="100" fill="none" xmlns="http://www.w3.org/2000/svg"><path d="M71.92 26.515v-2.512c0-11.803-9.07-21.958-20.86-22.513-12.588-.593-22.98 9.437-22.98 21.894v3.131c0 7.1-2.682 12.41-3.993 14.581a1.563 1.563 0 00.31 2.001c2.397 2.074 8.88 7.073 17.775 9.128h15.655c8.894-2.055 15.377-7.054 17.774-9.128a1.563 1.563 0 00.31-2c-1.31-2.172-3.993-7.483-3.993-14.582z" fill="#E3AA75"/><path d="M75.003 63.623l-14.328-6.14a4.697 4.697 0 01-2.847-4.317v-7.863H42.172v7.863a4.697 4.697 0 01-2.847 4.317l-14.328 6.14a7.828 7.828 0 00-4.744 7.196v21.454a6.263 6.263 0 006.262 6.263h14.091a4.697 4.697 0 004.697-4.697 4.65 4.65 0 00-.288-1.566h9.97a4.655 4.655 0 00-.288 1.566 4.697 4.697 0 004.697 4.697h14.09a6.263 6.263 0 006.263-6.263V70.819a7.827 7.827 0 00-4.744-7.196z" fill="#F7D291"/><path d="M62.525 58.276v1.118c0 6.917-5.608 12.525-12.525 12.525-6.917 0-12.525-5.608-12.525-12.525v-1.118l-7.829 3.355v22.814h40.708V61.63l-7.829-3.355z" fill="#E3AA75"/><path d="M31.378 89.141h9.228c2.042 0 3.762 1.311 4.41 3.132h9.969c.647-1.82 2.367-3.132 4.41-3.132h9.228a10.92 10.92 0 003.296-7.828c0-6.053-4.906-10.96-10.96-10.96H39.04c-6.052 0-10.96 4.907-10.96 10.96 0 3.069 1.265 5.839 3.298 7.828z" fill="#FF8087"/><path d="M60.96 70.354h-9.236a7.828 7.828 0 007.67 9.394c4.194 0 7.589-3.306 7.79-7.45a10.901 10.901 0 00-6.224-1.944z" fill="#FFE1A0"/><path d="M57.828 45.303H42.172v6.264A20.283 20.283 0 0050 53.131c2.775 0 5.418-.56 7.829-1.566v-6.263z" fill="#F0C382"/><path d="M50 48.434c-8.647 0-15.656-7.01-15.656-15.656V13.99h31.313v18.788c0 8.647-7.01 15.656-15.657 15.656z" fill="#FFE1A0"/><path d="M40.606 13.99l.598 3.42c.312.428 7.72 10.3 24.453 10.67V13.99h-25.05z" fill="#F7D291"/><path d="M28.08 23.384s10.96 0 15.657-9.394c0 0 8.318 11.449 28.093 9.097l.053-.413C71.506 10.9 61.866 1.464 50 1.464c-12.106 0-21.92 9.814-21.92 21.92z" fill="#F5B97D"/><path d="M68.668 73.526c.07.5.12 1.006.12 1.525 0 6.027-4.932 10.96-10.96 10.96H42.172c-6.028 0-10.96-4.933-10.96-10.96 0-.519.05-1.025.12-1.525a10.923 10.923 0 00-3.251 7.787c0 3.069 1.264 5.84 3.297 7.829h9.228c2.042 0 3.762 1.31 4.41 3.13h9.969c.647-1.82 2.367-3.13 4.41-3.13h9.228a10.92 10.92 0 003.296-7.829c0-3.046-1.244-5.8-3.25-7.787z" fill="#E6646E"/><path d="M24.95 93.838a4.71 4.71 0 01-4.697-4.696v3.13a6.263 6.263 0 006.262 6.263h14.091a4.697 4.697 0 004.697-4.696H24.95zm50.1 0a4.71 4.71 0 004.697-4.696v3.13a6.263 6.263 0 01-6.262 6.263H59.394a4.697 4.697 0 01-4.697-4.696h20.354z" fill="#F0C382"/><path d="M59.41 76.515a1.465 1.465 0 100-2.93h-.016a1.46 1.46 0 00-1.457 1.466c0 .808.664 1.464 1.473 1.464z" fill="#333"/><path d="M75.58 62.277l-14.328-6.14a3.227 3.227 0 01-1.951-2.768c10.984-2.892 18.046-9.856 18.351-10.161.514-.514.572-1.33.138-1.913-.044-.059-4.406-6.026-4.406-14.78v-3.131C73.384 10.49 62.894 0 50 0S26.616 10.49 26.616 23.384v3.131c0 8.754-4.362 14.721-4.404 14.778-.437.583-.38 1.4.136 1.915.305.305 7.367 7.269 18.351 10.161a3.228 3.228 0 01-1.951 2.767l-14.328 6.14a9.282 9.282 0 00-5.632 8.542v21.455c0 4.26 3.466 7.727 7.727 7.727h14.091a6.169 6.169 0 006.162-6.162l-.003-.1h6.47l-.003.1A6.169 6.169 0 0059.394 100h14.09c4.262 0 7.728-3.467 7.728-7.727V70.819a9.282 9.282 0 00-5.632-8.542zm-6.691 9.479a12.367 12.367 0 00-7.93-2.867h-.692a13.995 13.995 0 003.68-8.41l4.942 2.118v9.159zm-15.856.063h7.927c1.706 0 3.308.455 4.694 1.246-.545 2.97-3.188 5.218-6.26 5.218a6.37 6.37 0 01-6.363-6.364l.002-.1zm21.67-29.886c-2.078 1.8-7.705 6.186-15.41 8.398v-3.18c4.708-3.054 7.829-8.356 7.829-14.373v-7.915a44.773 44.773 0 003.332-.163v1.816c0 7.546 2.856 13.137 4.25 15.417zM50 2.93c10.733 0 19.561 8.31 20.39 18.833-9.057.816-15.39-1.442-19.161-3.54-4.276-2.378-6.29-5.07-6.306-5.094a1.464 1.464 0 00-2.496.206c-1.758 3.517-4.677 6.027-8.676 7.461-1.617.58-3.1.86-4.144.996C30.422 11.255 39.257 2.93 50 2.93zM29.546 26.515v-1.759c3.067-.323 10.187-1.776 14.452-8.282 1.153 1.145 3.013 2.734 5.65 4.222 3.184 1.797 8.013 3.703 14.544 4.096v7.986c0 7.825-6.367 14.192-14.192 14.192s-14.19-6.367-14.19-14.192v-4.697a1.465 1.465 0 10-2.93 0v4.697c0 6.017 3.12 11.319 7.828 14.373v3.18c-7.706-2.212-13.333-6.6-15.41-8.398 1.393-2.28 4.249-7.871 4.249-15.418zM39.902 58.83a6.155 6.155 0 003.735-5.663v-4.494A17.031 17.031 0 0050 49.9c2.248 0 4.395-.436 6.364-1.227v4.494a6.155 6.155 0 003.734 5.663l.96.411.003.154c0 3.895-2.057 7.5-5.393 9.495H44.333a11.072 11.072 0 01-5.393-9.495c0-.051.004-.103.005-.154l.957-.41zm-8.79 3.768l4.942-2.119a13.995 13.995 0 003.68 8.41h-.693a12.366 12.366 0 00-7.93 2.868v-9.16zm9.494 34.473h-14.09a4.803 4.803 0 01-4.799-4.797V70.819a6.356 6.356 0 013.857-5.85l2.608-1.117v11.433a12.344 12.344 0 00-1.566 6.028c0 3.081 1.136 6.037 3.2 8.322a3.007 3.007 0 002.235.973l8.554-.002h.001c.863 0 1.675.336 2.285.947.61.61.947 1.422.947 2.285a3.236 3.236 0 01-3.232 3.233zm5.366-6.262a6.185 6.185 0 00-1.01-1.327 6.121 6.121 0 00-4.356-1.804h-.001l-8.554.002c-.04 0-.064-.01-.06-.006a9.475 9.475 0 01-2.445-6.36c0-5.235 4.26-9.494 9.495-9.494h3.443c.128.676.33 1.576.643 2.633a1.466 1.466 0 002.809-.834 24.723 24.723 0 01-.463-1.8h4.63l-.002.101c0 5.124 4.169 9.294 9.293 9.294 2.34 0 4.575-.873 6.295-2.457a9.282 9.282 0 002.439-3.66 9.453 9.453 0 012.327 6.217 9.473 9.473 0 01-2.434 6.35.147.147 0 01-.07.014h-8.557a6.13 6.13 0 00-2.26.431c-3.911-2.255-6.996-5.46-9.17-9.538a1.465 1.465 0 00-2.585 1.379c2.233 4.189 5.326 7.559 9.207 10.042a6.23 6.23 0 00-.553.817h-8.06zm32.31 1.465a4.803 4.803 0 01-4.797 4.797h-14.09a3.236 3.236 0 01-3.233-3.231 3.236 3.236 0 013.232-3.233h8.557c.863 0 1.678-.354 2.236-.973a12.4 12.4 0 003.197-8.32c0-2.186-.57-4.241-1.566-6.028V63.852l2.608 1.118a6.356 6.356 0 013.857 5.849v21.454z" fill="#333"/><path d="M42.955 31.437c1.444 0 2.767-.641 3.538-1.716a1.465 1.465 0 00-2.38-1.708c-.163.228-.565.494-1.158.494s-.995-.266-1.159-.494a1.465 1.465 0 10-2.38 1.708c.771 1.075 2.094 1.716 3.539 1.716zm1.307 5.008a1.465 1.465 0 00.01 2.071c1.263 1.248 3.404 1.994 5.728 1.994 2.325 0 4.466-.745 5.727-1.994a1.465 1.465 0 10-2.06-2.082c-.535.529-1.816 1.146-3.667 1.146-1.85 0-3.132-.617-3.666-1.146a1.465 1.465 0 00-2.072.01zm12.784-5.008c1.444 0 2.767-.641 3.538-1.716a1.465 1.465 0 10-2.38-1.708c-.164.228-.565.494-1.158.494s-.995-.266-1.159-.494a1.465 1.465 0 10-2.38 1.708c.771 1.075 2.094 1.716 3.539 1.716z" fill="#333"/></svg>