<svg width="69" height="70" fill="none" xmlns="http://www.w3.org/2000/svg"><path d="M54.809 20.593l9.904-9.904a1.273 1.273 0 000-1.8l-3.601-3.602a1.273 1.273 0 00-1.801 0l-9.904 9.904 5.402 5.402zm.178.178l-5.759-5.758a1.273 1.273 0 00-1.584-.174l-7.392 4.704a17.834 17.834 0 00-3.034 2.434L3.485 55.71a2.547 2.547 0 000 3.602l7.204 7.203a2.547 2.547 0 003.601 0l33.733-33.732c.92-.92 1.736-1.937 2.434-3.035l4.704-7.391a1.274 1.274 0 00-.174-1.585z" fill="#DCEBFF"/><path d="M49.407 15.19l5.403 5.403 3.6-3.601-5.402-5.403-3.601 3.601z" fill="#C4DEFF"/><path d="M36.342 33.658a2.547 2.547 0 00-3.602 0L17.038 49.361a2.547 2.547 0 103.601 3.601L36.342 37.26a2.547 2.547 0 000-3.602z" fill="#fff"/><path d="M14.29 66.514l1.801-1.8L5.286 53.909l-1.8 1.8a2.547 2.547 0 000 3.602l7.203 7.203a2.547 2.547 0 003.602 0z" fill="#C4DEFF"/><path d="M52.46 19.654l-4.794 7.302a17.828 17.828 0 01-2.434 3.035L11.5 63.724a2.547 2.547 0 01-3.602 0l2.791 2.79a2.547 2.547 0 003.602 0l33.732-33.732c.92-.92 1.736-1.937 2.434-3.035l4.704-7.391a1.273 1.273 0 00-.174-1.585l-2.701-2.7c.422.421.494 1.08.174 1.583z" fill="#C4DEFF"/><path d="M14.29 66.514l1.801-1.8-2.79-2.791-1.801 1.8a2.547 2.547 0 01-3.602 0l2.791 2.791a2.547 2.547 0 003.602 0z" fill="#A5CDFF"/><path d="M2.643 60.154l7.203 7.203a3.742 3.742 0 005.287 0l33.732-33.733c.98-.98 1.854-2.068 2.597-3.237l4.704-7.392a2.448 2.448 0 00.197-2.27l9.193-9.194a2.467 2.467 0 000-3.485l-3.602-3.602a2.467 2.467 0 00-3.485 0l-9.193 9.193a2.447 2.447 0 00-2.271.197l-7.392 4.704a19.047 19.047 0 00-3.237 2.597L2.643 54.867a3.742 3.742 0 000 5.287zM51.092 15.19l1.916-1.917 3.718 3.718-1.917 1.916-3.717-3.717zm7.319.116l-3.718-3.718 1.917-1.917 3.717 3.718-1.916 1.917zm1.858-9.178l3.602 3.601a.082.082 0 010 .116l-1.859 1.86-3.717-3.719 1.858-1.858a.082.082 0 01.116 0zM38.06 22.819a16.659 16.659 0 012.832-2.271l7.392-4.704a.083.083 0 01.102.011l5.759 5.76a.08.08 0 01.01.101l-4.703 7.392a16.66 16.66 0 01-2.272 2.832L13.448 65.672a1.357 1.357 0 01-1.917 0L4.328 58.47a1.357 1.357 0 010-1.917L38.06 22.82z" fill="#333"/><path d="M25.926 40.472l3.602 3.601a1.191 1.191 0 101.685-1.684l-3.602-3.602a1.191 1.191 0 10-1.685 1.685zm-3.96 3.96l3.602 3.601a1.192 1.192 0 001.685-1.685l-3.602-3.601a1.192 1.192 0 00-1.685 1.685z" fill="#E6646E"/><path fill-rule="evenodd" clip-rule="evenodd" d="M21.687 54.682c-1.457 1.458-4.182.727-5.64-.73-1.457-1.458-2.125-4.497-.668-5.954L31.377 32c1.457-1.457 4.497-.79 5.954.668 1.458 1.458 1.811 4.56.354 6.017L21.687 54.682zm-4.623-5c-.528.529.14 2.057.668 2.585.529.529 1.742 1.259 2.27.73L36 37c.528-.528.175-2.119-.353-2.647-.529-.529-2.057-1.197-2.585-.668L17.064 49.682z" fill="#333"/><path d="M40.46 25.938l3.602 3.601a1.191 1.191 0 101.685-1.684l-3.602-3.602a1.191 1.191 0 10-1.685 1.685zM8.045 58.353l3.602 3.601a1.191 1.191 0 001.685-1.685L9.73 56.668a1.192 1.192 0 00-1.685 1.685z" fill="#333"/></svg>