<svg width="70" height="70" fill="none" xmlns="http://www.w3.org/2000/svg"><g clip-path="url(#clip0)"><path d="M40.221 15.199c-2.819-2.905-2.876-7.712-.051-10.61a10.63 10.63 0 017.717-3.222c5.879.044 10.58 4.917 10.58 10.796v7.716a7.671 7.671 0 01-7.67 7.671L40.22 15.2z" fill="#F5B97D"/><path d="M64.276 38.5l-5.582-10.106a9.832 9.832 0 00-8.607-5.08h-5.163a7.754 7.754 0 00-7.753 7.754 6.814 6.814 0 003.143 5.743l-.01-.002c-5.3 1.123-9.278 5.829-9.278 11.463 0 5.029 3.17 9.316 7.618 10.978l-.033.084v9.299H60.81v-5.674c0-4.512-1.124-8.952-3.27-12.92l.053-.631 5.309-4.157a5.312 5.312 0 001.375-6.75z" fill="#DCEBFF"/><path d="M54.504 51.654l-2.526 2.525a2.864 2.864 0 11-4.05-4.05l2.525-2.525 4.05 4.05zm-1.505-34.729l-6.39-7.586-6.388 4.02v3.566a6.389 6.389 0 0012.778 0zM41.92 37.956a3.069 3.069 0 11-4.34 4.34l-2.705-2.706 1.634-1.634a3.827 3.827 0 015.412 0z" fill="#FFE1A0"/><path d="M12.75 39.603L6.374 33.23a4.507 4.507 0 016.374-6.374 4.507 4.507 0 016.374 6.374l-6.374 6.374zm10.298-21.146l-5.266-5.265a3.723 3.723 0 115.266-5.266 3.723 3.723 0 115.265 5.266l-5.265 5.265z" fill="#FF8087"/><path d="M65.472 37.84l-5.581-10.107a11.191 11.191 0 00-1.84-2.46 8.97 8.97 0 001.784-5.394v-7.716c0-.466-.027-.936-.08-1.397a1.367 1.367 0 10-2.717.31c.042.358.062.724.062 1.087v7.716c0 1.347-.42 2.63-1.198 3.698a11.2 11.2 0 00-3.586-1.406 7.725 7.725 0 002.05-5.246c0-.322-.114-.634-.322-.88l-6.388-7.587a1.367 1.367 0 00-1.774-.277l-6.062 3.814c-.766-2.189-.326-4.754 1.329-6.453a9.217 9.217 0 016.727-2.807 9.144 9.144 0 012.625.403 1.367 1.367 0 00.805-2.613A11.879 11.879 0 0047.896 0h-.092a11.927 11.927 0 00-8.613 3.634c-3.21 3.293-3.315 8.598-.337 12.09v1.201c0 2.27.98 4.314 2.538 5.734-3.28 1.383-5.589 4.631-5.589 8.409a8.14 8.14 0 001.529 4.755 5.165 5.165 0 00-1.79 1.166l-1.612 1.613a13.112 13.112 0 00-4.27 9.67c0 5.251 3.11 9.79 7.584 11.87v8.49a1.367 1.367 0 002.735 0v-7.57c.891.192 1.816.294 2.764.294a1.367 1.367 0 000-2.734c-5.707 0-10.35-4.643-10.35-10.35 0-2.478.9-4.869 2.496-6.734l1.725 1.725a4.42 4.42 0 003.137 1.297 4.423 4.423 0 003.137-1.297 4.435 4.435 0 001.21-4.007h2.512a1.367 1.367 0 000-2.734h-2.618a5.46 5.46 0 01-5.454-5.454 6.394 6.394 0 016.386-6.387h5.163a8.467 8.467 0 017.41 4.373l5.582 10.108a3.928 3.928 0 01-1.014 5.007l-7.44 5.673-2.243-2.244 6.32-6.387a1.37 1.37 0 00.1-1.81l-4.588-5.797a1.367 1.367 0 00-2.144 1.697l3.836 4.847-8.945 9.014a4.236 4.236 0 000 5.984 4.218 4.218 0 002.992 1.237 4.218 4.218 0 002.992-1.237l2.46-2.46 1.405-1.071a25.876 25.876 0 012.632 11.344v5.674a1.367 1.367 0 002.735 0v-5.674a28.61 28.61 0 00-3.155-13.031l4.708-3.59.014-.01a6.652 6.652 0 001.728-8.488zm-24.518 3.49a1.703 1.703 0 01-2.406 0l-1.74-1.74.668-.667a2.443 2.443 0 011.74-.72 2.44 2.44 0 011.738.72 1.703 1.703 0 010 2.406zm.634-27.217l4.743-2.983 5.279 6.268a5.029 5.029 0 01-5 4.55 5.027 5.027 0 01-5.021-5.023v-2.812zm7.307 39.1a1.498 1.498 0 010-2.117l1.558-1.559 2.117 2.117-1.558 1.558a1.498 1.498 0 01-2.117 0zM12.75 25.107a5.884 5.884 0 00-7.342.782 5.836 5.836 0 00-1.72 4.153c0 1.57.61 3.045 1.72 4.154l6.374 6.374a1.363 1.363 0 001.934 0l6.374-6.374a5.881 5.881 0 000-8.307 5.884 5.884 0 00-7.34-.782zm5.407 7.156l-5.408 5.407-5.407-5.407a3.12 3.12 0 01-.92-2.22c0-.84.327-1.628.92-2.22a3.13 3.13 0 012.22-.92 3.13 3.13 0 012.22.92 1.37 1.37 0 001.934 0 3.143 3.143 0 014.44 0 3.143 3.143 0 010 4.44zM29.28 6.96a5.1 5.1 0 00-6.23-.76 5.06 5.06 0 00-2.635-.731c-1.36 0-2.638.53-3.6 1.49a5.057 5.057 0 00-1.49 3.6c0 1.36.53 2.638 1.49 3.6l5.266 5.265a1.364 1.364 0 001.933 0l5.266-5.265a5.096 5.096 0 000-7.2zm-1.934 5.265l-4.298 4.299-4.299-4.299a2.34 2.34 0 01-.69-1.666c0-.63.245-1.22.69-1.666a2.34 2.34 0 011.666-.69c.63 0 1.22.245 1.666.69.534.534 1.4.534 1.934 0a2.34 2.34 0 011.665-.69c.63 0 1.221.245 1.666.69a2.34 2.34 0 01.69 1.666 2.34 2.34 0 01-.69 1.666z" fill="#333"/><path d="M56.005 6.64a1.372 1.372 0 001.367-1.367c0-.36-.146-.712-.4-.966a1.378 1.378 0 00-.967-.401c-.36 0-.713.146-.967.4-.254.255-.4.608-.4.967a1.369 1.369 0 001.367 1.367z" fill="#333"/></g><defs><clipPath id="clip0"><path fill="#fff" d="M0 0h70v70H0z"/></clipPath></defs></svg>