<svg width="35" height="41" fill="none" xmlns="http://www.w3.org/2000/svg"><path d="M31.822 15.489L8.291.985A5.375 5.375 0 002.788.868 5.375 5.375 0 000 5.618v28.875c0 3.023 2.435 5.495 5.429 5.511h.024c.935 0 1.91-.293 2.82-.849a1.553 1.553 0 10-1.617-2.652c-.426.26-.842.394-1.21.394-1.13-.006-2.34-.974-2.34-2.404V5.618c0-.858.448-1.62 1.196-2.038a2.305 2.305 0 012.36.05l23.53 14.504a2.288 2.288 0 011.11 1.992 2.29 2.29 0 01-1.12 1.988L13.17 32.53a1.553 1.553 0 101.622 2.65l17.01-10.415a5.403 5.403 0 002.607-4.633 5.403 5.403 0 00-2.587-4.644z" fill="url(#paint0_linear)"/><defs><linearGradient id="paint0_linear" x1="17.204" y1=".167" x2="17.204" y2="40.004" gradientUnits="userSpaceOnUse"><stop stop-color="#FC6D2B"/><stop offset="1" stop-color="#F51E4A"/></linearGradient></defs></svg>