<svg width="200" height="50" fill="none" xmlns="http://www.w3.org/2000/svg"><path d="M42.458 12.347c.584 1.178-.578 2.343-1.756 1.756a1.075 1.075 0 01-.478-.477c-.583-1.178.579-2.343 1.757-1.757.207.104.373.271.477.478zm5.139 0c.583 1.178-.578 2.343-1.757 1.756a1.07 1.07 0 01-.477-.477c-.587-1.178.578-2.343 1.756-1.757.207.104.374.271.478.478zm1.736 3.463c-.89.678-2.651 1.302-4.937 1.302-2.286 0-4.048-.624-4.938-1.301h-1.946c.49 1.745 3.38 3.087 6.883 3.087 3.502 0 6.392-1.342 6.883-3.087h-1.945zm24.568 18.348c-1.063 0-1.905-.094-2.526-.281a4.905 4.905 0 01-1.667-.872 3.99 3.99 0 01-1.166-1.537c-.266-.61-.4-1.418-.4-2.422v-7.89h-2.16V18.5h2.157v-5.025h3.457V18.5h4.373v2.66h-4.373v7.173c0 .298.025.594.074.887.05.3.14.594.266.872.128.286.326.535.576.723.396.338.886.546 1.405.594.425.053.855.083 1.284.091h.857v2.66l-2.157-.002zM86.87 18.5a5.212 5.212 0 011.862.325c.524.187.999.49 1.389.887.333.333.609.81.827 1.433.219.623.327 1.376.325 2.26v8.125c-.007.338-.04.673-.103 1.005a1.856 1.856 0 01-1.522 1.522c-.379.066-.764.1-1.149.1h-7.475c-.47-.002-.938-.032-1.404-.089-.5-.058-.978-.285-1.433-.679a3.212 3.212 0 01-.75-.96 4.78 4.78 0 01-.416-1.137 6.807 6.807 0 01-.167-1.153c-.02-.374-.03-.709-.03-1.005 0-.686.074-1.369.222-2.038.148-.667.517-1.258 1.108-1.773.492-.433.99-.694 1.492-.783a8.01 8.01 0 011.375-.132h6.795v-1.094a4 4 0 00-.074-.739 1.652 1.652 0 00-.37-.738 1.53 1.53 0 00-.812-.562 3.5 3.5 0 00-.872-.118h-7.71V18.5h8.893zm-4.816 8.568c-.193.01-.386.035-.576.075-.28.059-.529.223-.694.458a2.439 2.439 0 00-.237.472c-.098.237-.147.641-.147 1.212.005.295.029.59.074.882.033.322.173.624.398.857.144.135.309.245.488.325.199.099.417.15.639.151h4.817c.098 0 .221-.005.369-.015a.678.678 0 00.399-.162.543.543 0 00.207-.31c.02-.113.029-.226.029-.34v-3.607l-5.766.002zm11.582-13.593h3.457v20.683h-3.456V13.475zm5.82 20.683V13.475h3.46v20.683h-3.46zm10.962 0l-5.406-5.732a6.515 6.515 0 01-.695-.946 2.623 2.623 0 01-.37-1.417c0-.59.129-1.069.385-1.433.255-.364.492-.674.709-.93l4.727-5.2h4.019l-5.88 6.323a3.27 3.27 0 00-.355.488 1.243 1.243 0 00-.147.635c.003.266.08.525.222.75.148.248.321.48.516.694l6.412 6.767h-4.137zm8.362-20.683V18.5h4.583c.489 0 .978.03 1.463.09.505.058 1 .178 1.477.353.495.185.958.444 1.374.769.468.375.859.836 1.153 1.359.442.758.729 1.597.841 2.467.131.955.195 1.917.193 2.88 0 1.281-.088 2.33-.266 3.147-.177.817-.425 1.49-.743 2.018a4.416 4.416 0 01-1.123 1.334 5.42 5.42 0 01-1.374.782 5.98 5.98 0 01-1.477.37c-.475.057-.954.087-1.433.089h-4.934c-.44 0-.879-.03-1.315-.09a2.095 2.095 0 01-1.167-.59 1.893 1.893 0 01-.591-.96 4.517 4.517 0 01-.117-.99V13.475h3.456zm0 16.723c0 .158.004.334.015.517.011.193.09.376.221.518a.78.78 0 00.429.221c.171.03.343.044.516.044h2.512c.236 0 .502-.01.798-.03.303-.02.601-.085.886-.191a3.63 3.63 0 00.872-.473c.31-.237.558-.547.723-.901.139-.341.254-.691.34-1.049.129-.482.193-1.246.193-2.29 0-1.24-.074-2.136-.222-2.689-.147-.552-.252-.887-.314-1.004a2.898 2.898 0 00-1.432-1.403 3.137 3.137 0 00-.887-.25 6.634 6.634 0 00-.843-.06h-3.811l.004 9.04zM141.442 18.5a5.222 5.222 0 011.862.325c.524.187.998.49 1.388.887.334.333.61.81.828 1.433.218.623.327 1.376.325 2.26v8.125a6.053 6.053 0 01-.103 1.005 1.852 1.852 0 01-1.522 1.522 6.683 6.683 0 01-1.153.103h-7.475a12.147 12.147 0 01-1.403-.09c-.5-.057-.977-.284-1.433-.678a3.202 3.202 0 01-.75-.96 4.751 4.751 0 01-.417-1.138 6.888 6.888 0 01-.167-1.152c-.02-.374-.03-.71-.03-1.005a9.5 9.5 0 01.222-2.039c.148-.666.518-1.257 1.108-1.772.493-.433.99-.694 1.492-.783a8.004 8.004 0 011.374-.133h6.796v-1.096a3.984 3.984 0 00-.074-.739 1.64 1.64 0 00-.369-.738 1.538 1.538 0 00-.813-.562 3.495 3.495 0 00-.871-.118h-7.712V18.5h8.897zm-4.815 8.568c-.194.01-.386.035-.576.075a1.13 1.13 0 00-.695.458 2.5 2.5 0 00-.236.472c-.099.237-.149.641-.148 1.212.005.297.03.593.074.886.033.322.174.624.399.857.143.135.308.245.487.325.198.097.415.147.635.148h4.816c.099 0 .222-.005.37-.015a.679.679 0 00.399-.163.539.539 0 00.206-.31c.02-.112.03-.225.03-.34v-3.607l-5.761.002zm11.581-6.177c.004-.278.029-.554.075-.828.053-.322.202-.62.428-.856a1.833 1.833 0 011.197-.635c.397-.045.796-.07 1.196-.074h5.525a12.43 12.43 0 012.334.207c.728.138 1.408.492 2.039 1.063.413.375.772.877 1.078 1.507.306.63.458 1.487.458 2.57v10.313h-3.455V24.88c.001-.5-.039-1-.118-1.492a2.931 2.931 0 00-.532-1.285 2.173 2.173 0 00-.96-.725c-.384-.147-.891-.22-1.521-.221h-3.517c-.098 0-.197.005-.295.015a.503.503 0 00-.296.162.52.52 0 00-.162.325c-.01.119-.014.227-.014.325v12.174h-3.46V20.89zm16.694 13.267V13.475h3.457v20.683h-3.457zm10.961 0l-5.406-5.732a6.515 6.515 0 01-.695-.946 2.623 2.623 0 01-.37-1.417c0-.59.129-1.069.385-1.433.255-.364.492-.674.709-.93l4.727-5.2h4.019l-5.88 6.323a3.27 3.27 0 00-.355.488 1.243 1.243 0 00-.147.635c.003.266.08.525.222.75.148.248.321.48.516.694L180 34.157h-4.137z" fill="#A54181"/><path d="M57.21 24.267V6.306A3.306 3.306 0 0053.903 3H33.917a3.306 3.306 0 00-3.306 3.306v17.96a3.306 3.306 0 003.306 3.307h14.591c1.424 3.283 8.701 2.95 8.701 2.95s-1.974-.94-2.522-3.045a3.307 3.307 0 002.522-3.211zm-22.013-2.408V8.713a1.128 1.128 0 011.125-1.13H51.5c.623 0 1.127.505 1.127 1.127v13.15c0 .622-.504 1.126-1.126 1.127H36.325a1.128 1.128 0 01-1.128-1.128z" fill="#A54181"/><path d="M40.297 29.667v3.948a1.128 1.128 0 01-1.13 1.123H25.713a1.128 1.128 0 01-1.13-1.125V21.807c0-.623.505-1.127 1.127-1.127h2.844v-4.583h-5.25A3.306 3.306 0 0020 19.4v16.62a3.307 3.307 0 002.522 3.21C21.974 41.334 20 42.275 20 42.275s7.277.334 8.702-2.95h12.875a3.306 3.306 0 003.306-3.305v-6.352h-4.586z" fill="#1D9A9E"/><path d="M27.483 24.737a1.275 1.275 0 101.274-1.273c-.704 0-1.274.57-1.274 1.273zm7.15 5.871h-3.541v2.274h3.541v-2.274z" fill="#1D9A9E"/></svg>