<svg width="200" height="50" fill="none" xmlns="http://www.w3.org/2000/svg"><path d="M181.836 18.823c.785 0 1.57-.01 2.365 0v6.29c.262 0 .534-.011.807-.011.697-2.093 1.493-4.153 2.158-6.268.872-.054 1.744-.032 2.616-.01-.861 2.42-1.646 4.872-2.507 7.28.872 2.595 1.809 5.167 2.725 7.75-.861.022-1.711 0-2.572.022-.807-2.125-1.537-4.284-2.344-6.41-.283-.065-.588-.032-.872-.032-.011 2.147 0 4.295 0 6.442h-2.365c-.011-5.003-.011-10.028-.011-15.053zm-9.962 0c.806.011 1.613-.01 2.43.011v6.29c.905-.011 1.81 0 2.714 0-.011-2.093 0-4.197 0-6.29h2.366v15.053h-2.366a626.617 626.617 0 010-6.431h-2.714c.011 2.136 0 4.284 0 6.43h-2.43c0-5.024-.011-10.038 0-15.063zm-6.846 10.17c.698-.011 1.396.022 2.093-.022-.37-2.42-.741-4.84-1.024-7.27-.393 2.42-.731 4.861-1.069 7.292zm-.566-10.202c1.079.021 2.158-.022 3.226.032.828 5.025 1.711 10.05 2.561 15.075a90.283 90.283 0 00-2.441 0l-.393-2.649h-2.746c-.109.883-.251 1.755-.349 2.638-.818.01-1.635 0-2.453 0 .872-5.036 1.723-10.072 2.595-15.096zm-8.524 7.488c0 1.744-.011 3.499.011 5.243.523-.011 1.046.032 1.559-.044.457-.109.752-.578.752-1.035.021-.927 0-1.864.011-2.79.01-.437-.088-.927-.48-1.178-.578-.273-1.232-.196-1.853-.196zm-2.398-7.445c2.071-.01 4.153 0 6.224 0v2.29c-1.275 0-2.54.01-3.804-.012-.033.949-.011 1.897-.011 2.845 1.264.055 2.758-.109 3.76.818.992.893 1.025 2.343.992 3.586-.054 1.395.24 2.943-.567 4.185-.545.894-1.613 1.254-2.605 1.308-1.329.066-2.659.011-3.978.033-.022-5.014-.011-10.039-.011-15.053zm-15.609-.01c.807 0 1.614-.012 2.42.01.044 1.897-.087 3.793-.065 5.7.011 1.222 0 2.431-.033 3.652a691.41 691.41 0 002.594-9.34c1.003-.034 2.006-.012 3.009-.023v15.064h-2.398c.032-3.194.021-6.387.076-9.581-.97 3.183-1.886 6.376-2.812 9.57-.927.022-1.864 0-2.801.01.01-5.013 0-10.038.01-15.063zm-10.322 0c.785 0 1.57-.012 2.366 0 .032 3.095-.066 6.18-.055 9.264.872-3.085 1.711-6.18 2.583-9.265.992-.01 1.995-.01 2.987 0 .011 5.014-.022 10.017.022 15.031-.818.055-1.646.022-2.464.022.087-1.025.044-2.06.055-3.096-.033-2.158.174-4.316 0-6.474-.85 3.215-1.853 6.376-2.769 9.57h-2.79c-.022-5.014 0-10.028.065-15.053zm-9.875.01h2.398c.011 2.093-.011 4.197.011 6.3h.796c.73-2.103 1.449-4.207 2.201-6.3.861.011 1.712 0 2.573.011-.829 2.42-1.668 4.84-2.475 7.27.785 2.616 1.832 5.178 2.671 7.783h-2.562c-.784-2.148-1.558-4.284-2.332-6.431h-.872c-.011 2.147 0 4.294-.011 6.43h-2.398c-.011-5.024 0-10.049 0-15.063zM100 18.824h6.365v2.332h-4c0 1.297.011 2.583 0 3.88 1.112.022 2.235 0 3.346.011-.01.774-.01 1.548 0 2.322-1.122.01-2.234-.022-3.357.01.033 1.385.011 2.77.011 4.164h3.99c0 .774.01 1.56 0 2.344h-6.366c.011-5.025.011-10.039.011-15.064zm-9.7.01c.806 0 1.623-.01 2.43 0 .022 2.202-.044 4.415.032 6.616.11 1.134 1.472.927 2.278.927v-7.554c.807-.01 1.614 0 2.431 0v15.064c-.806 0-1.613-.011-2.42.01-.021-1.732-.01-3.454-.01-5.188-1.145-.021-2.388.088-3.412-.534-.938-.577-1.286-1.733-1.33-2.768 0-2.191.011-4.382 0-6.573zm-10.29-.01h2.398c.032 2.136-.044 4.261-.033 6.397-.011 1.003.043 1.995-.044 2.998a916.566 916.566 0 002.605-9.374c1.003-.033 2.006-.01 3.009-.022.01 5.025.01 10.04 0 15.064h-2.398c.032-3.194.022-6.387.087-9.581-.97 3.183-1.897 6.387-2.823 9.58-.927.012-1.864 0-2.79 0-.011-5.024-.022-10.038-.011-15.063zm-6.987 2.343c0 1.733-.011 3.477.01 5.21.677-.044 1.483.163 2.039-.327.458-.709.207-1.602.272-2.387-.065-.73.197-1.58-.305-2.202-.534-.501-1.351-.24-2.016-.294zm-2.398-2.333h3.793c1.057.011 2.245.36 2.812 1.33.763 1.199.513 2.681.556 4.022.033 1.297.022 2.812-1.014 3.76-1.024.883-2.474.763-3.738.763-.022 1.734 0 3.467-.011 5.189-.796-.011-1.602 0-2.398 0V18.834zm-7.15 8.273c-.011 1.472 0 2.943-.011 4.415.72-.088 1.58.218 2.19-.284.458-.414.317-1.1.36-1.657-.043-.708.164-1.59-.425-2.136-.567-.556-1.417-.262-2.114-.338zm0-6.093a230.694 230.694 0 000 3.902c.795-.021 2.038.186 2.3-.828.076-.818.163-1.69-.099-2.474-.436-.807-1.45-.556-2.201-.6zm-2.377-2.18h3.946c1.058.011 2.202.447 2.747 1.395.588 1.047.501 2.3.458 3.467-.055.871-.35 1.896-1.265 2.223.818.273 1.297 1.123 1.385 1.94a13.84 13.84 0 01-.033 3.292c-.11.861-.523 1.733-1.275 2.202-.807.49-1.788.534-2.704.501H61.11c-.01-5.014-.01-10.017-.01-15.02zm-6.049 2.867c-.283 2.42-.654 4.84-1.035 7.26.697.043 1.395.01 2.092.032-.349-2.43-.665-4.872-1.057-7.292zm-1.602-2.889c1.079-.043 2.158-.01 3.237-.021.872 5.024 1.733 10.06 2.583 15.096h-2.452c-.12-.883-.25-1.766-.37-2.638-.916.011-1.821 0-2.737.011-.141.883-.25 1.766-.381 2.638-.818 0-1.624-.011-2.442 0 .85-5.025 1.744-10.05 2.562-15.086zm-10.497.011h7.292c.022.785.022 1.559 0 2.344a88.737 88.737 0 00-2.42 0v12.72h-2.398c-.01-4.24 0-8.48 0-12.72-.817 0-1.635-.011-2.452 0-.022-.774-.022-1.559-.022-2.344zm65.606 1.777c.393-1.199 1.635-1.984 2.878-1.973 1.133-.098 2.398.076 3.204.97.971 1.09.938 2.66.916 4.033h-2.431c-.021-.676.077-1.373-.163-2.016-.273-.829-1.592-.927-2.038-.197-.284.458-.273 1.025-.284 1.548.011 2.311 0 4.633 0 6.944.022.534.033 1.155.447 1.558.523.425 1.45.338 1.799-.283.348-.654.207-1.439.228-2.148.807 0 1.625 0 2.431.011.011 1.145.033 2.355-.501 3.401-.513 1.003-1.635 1.548-2.736 1.591-1.079.077-2.278-.076-3.074-.882-.872-.84-.97-2.115-1.035-3.26-.022-2.081 0-4.163-.011-6.245.011-1.014.032-2.071.37-3.052zm30.171-5.69h6.366c.021.676.021 1.363 0 2.038-2.126-.01-4.24 0-6.366 0V14.91zm-125.62 4.186h18.159V33.92l-3.99 2.3-.01-13.124h-3.074v14.89l-4.012 2.3v-17.19h-3.073v18.955l-4 2.3V19.096zM10 12h24.361v4L10 16.011V12z" fill="#002456"/></svg>