<svg width="200" height="50" fill="none" xmlns="http://www.w3.org/2000/svg"><path d="M58.118 22.366l.645-2.023-2.096.066a4.895 4.895 0 01-2.72-.95h.282a3.38 3.38 0 003.01-1.88l.922-1.968a16.21 16.21 0 01-2.162-.126 3.376 3.376 0 01-1.764-1.066 3.323 3.323 0 00-2.408-1.053c-.355 0-.71.06-1.053.168.048-.162.09-.325.12-.493a4.47 4.47 0 00-.915-3.293L48.39 7.79l-.974 2.288a2.055 2.055 0 01-.693.813 4.248 4.248 0 00-1.156-2.156 5.185 5.185 0 00-3.756-1.565c-.247 0-.494.018-.734.054l-1.903.374a6.39 6.39 0 01.77-1.806l1.048-1.632-2.636.247-.843-1.806-1.626.885L34.381 2l-1.505 1.487-1.625-.843-.843 1.764-2.637-.301 1.048 1.637c.349.56.608 1.168.77 1.807l-1.806-.356h-.06a5.358 5.358 0 00-.758-.054 5.185 5.185 0 00-3.757 1.565 4.245 4.245 0 00-1.168 2.186 2.054 2.054 0 01-.68-.789l-.981-2.306-1.602 1.963a4.516 4.516 0 00-.897 3.28c.03.17.073.332.12.494a3.507 3.507 0 00-1.053-.168 3.323 3.323 0 00-2.408 1.053 3.404 3.404 0 01-1.746 1.066 12.11 12.11 0 01-2.191.126l.897 1.999a3.38 3.38 0 003.01 1.878h.283a4.913 4.913 0 01-2.685.945L10 20.343l.644 2.023a4.217 4.217 0 003.492 2.956 3.347 3.347 0 01-1.806 2.468l-1.614.656.867 1.511a3.842 3.842 0 003.27 1.764c.342 0 .686-.036 1.023-.108.084.367.192.734.313 1.09.3.794.319 1.66.06 2.468l-.783 1.643 1.752.464c.391.102.8.15 1.204.15.289 0 .572-.03.855-.096a4.08 4.08 0 00.602-.187c.223.403.506.777.825 1.108 1.12 1.15 2.709 1.734 4.725 1.734h1.44L23.9 41.22l2.252 1.113c.909.446 1.836.85 2.781 1.204l-.27.783.776.355c1.288.506 2.655.789 4.04.837h1.847a12.122 12.122 0 004.022-.843l.752-.349-.265-.783a30.001 30.001 0 002.812-1.246l2.21-1.071-2.963-1.204h1.445c2.017 0 3.612-.602 4.726-1.734a5.1 5.1 0 00.825-1.108 3.965 3.965 0 001.457.283c.403 0 .812-.054 1.203-.15l1.758-.464-.764-1.613a3.688 3.688 0 01.03-2.529c.126-.367.229-.74.313-1.113.337.072.686.108 1.03.108a3.82 3.82 0 003.274-1.806l.855-1.493-1.59-.65a3.347 3.347 0 01-1.805-2.468 4.223 4.223 0 003.491-2.962l-.024.048z" fill="#fff"/><path d="M41.617 28.76H27.17v5.417c0 2.228 1.608 3.612 3.986 3.612 1.986 0 2.51.078 3.244.813.464-.5 1.12-.783 1.806-.77v-.085l.458-1.409-.777-.848a2.749 2.749 0 01-.963.114 7.742 7.742 0 01-1.445-.15h-.15c-.066 0-.066 0-.084.036l-.09.15-.163.271-.313-.072-1.391-.325-.193.313v.036l.169.187-.072.24a2.52 2.52 0 01-.536.789l-.35.373-.318-.397-.235-.295a1.207 1.207 0 01-.169-1.156l-.39.163-.176-.386-.096-.27a1.322 1.322 0 01.44-1.596l1.12-.602 1.065.21c0-.102.066-.469.096-.56h-.06l-.602.23-.602-.41a.314.314 0 010-.445l.572-.867-1.45-1.806 2.172.855.15-.18.302-.362.343.325c.09.09.15.199.18.325.603.24 1.716.945 1.807 2.089l-.344.139a.41.41 0 00.163.138l1.59.157.144-.043c.27-.102.56-.156.849-.162.289 0 .572.066.83.192.115-.042.241-.066.362-.072h.078c.849 0 1.276.638 1.613 1.144l.175.253c.295.421.686 1.035.704 1.06l.175.27-.217.253a1.05 1.05 0 01-.843.416 2.322 2.322 0 01-.289 0 1.353 1.353 0 01-.253-.079c0 .085 0 .187-.048.271l-.247 1.42a3.404 3.404 0 002.727-3.473l-.005-5.442zm-14.466-.44h11.252a1.81 1.81 0 01-.41-1.806 1.96 1.96 0 01-.421-.277c-.44.325-1.806 1.3-2.131 1.547l-.072.048-4.42-.783h-.09a5.22 5.22 0 01-.433 0 .425.425 0 01-.415.338h-.072a.443.443 0 01-.362-.5v-.096a1.757 1.757 0 01-.692-1.806v-.079l.066-.048s.084-.06.199-.126l-.32-.048a.222.222 0 01-.18-.253.213.213 0 01.247-.18h.006l.765.12.072-2.691 1.138-1.204.71 1.492-.746 2.59.674.108a.22.22 0 01.18.252.214.214 0 01-.216.181h-.036l-.548-.09v.042c.06.108.15.193.265.247l3.365.054.86-.849a1.802 1.802 0 01-1.203-1.499 1.757 1.757 0 01-.958-.879 1.8 1.8 0 01-.078-1.204 3.968 3.968 0 01-1.402-.94h-4.997c.24.59.38 1.217.403 1.85v6.489z" fill="#FCE527"/><path d="M65.987 23.672h4.96V32.1h3.612v-8.428h4.96v-3.058H65.988v3.058zm18.3 3.612v-6.622h-3.491V32.1h3.082l6.02-6.694V32.1h3.492V20.614h-3.082l-6.02 6.67zm20.728-2.408h-5.611v-4.214h-3.492V32.1h3.492v-4.286h5.611V32.1h3.491V20.662h-3.491v4.214zm15.67-.89a7.476 7.476 0 00-2.553-.314h-3.612v-3.01h-3.491V32.1l7.079-.048a7.927 7.927 0 002.192-.265 3.954 3.954 0 003.01-3.973 3.866 3.866 0 00-2.625-3.829zm-1.782 5.176c-.44.15-.909.211-1.373.169h-3.01v-2.914h3.01a4.08 4.08 0 011.349.145c.554.162.927.674.915 1.252a1.435 1.435 0 01-.891 1.348zm19.035-8.5h-4.382l-4.214 4.31h-.963v-4.31h-3.492V32.1h3.492v-4.334h.963l4.166 4.334h4.647l-5.803-6.02 5.586-5.418z" fill="#222220"/><path d="M145.452 20.3c-4.72 0-7.538 2.65-7.538 6.07 0 3.418 2.842 6.067 7.513 6.067 4.672 0 7.489-2.648 7.489-6.068 0-3.42-2.745-6.068-7.464-6.068zm-.025 9.344c-2.335 0-3.828-1.397-3.828-3.275s1.517-3.25 3.828-3.25c2.312 0 3.829 1.372 3.829 3.25s-1.493 3.275-3.829 3.275zm18.994-8.524v-1.156h-3.492v1.156c-4.383.096-7.007 1.95-7.007 5.225 0 3.275 2.624 4.985 7.007 5.081v1.156h3.492v-1.156c4.406-.096 7.031-1.806 7.031-5.081 0-3.275-2.619-5.13-7.031-5.225zm-3.492 7.85c-2.408-.096-3.468-1.084-3.468-2.625s1.06-2.649 3.468-2.745v5.37zm3.492 0V23.6c2.432.096 3.467 1.204 3.467 2.745h.006c0 1.541-1.035 2.529-3.473 2.625zm18.547-7.85v-1.156h-3.491v1.156c-4.383.096-7.008 1.95-7.008 5.225 0 3.275 2.625 4.985 7.008 5.081v1.156h3.491v-1.156c4.407-.096 7.032-1.806 7.032-5.081 0-3.275-2.625-5.13-7.032-5.225zm-3.491 7.85c-2.408-.096-3.468-1.084-3.468-2.625s1.06-2.649 3.468-2.745v5.37zm6.953-2.625c0 1.541-1.029 2.529-3.462 2.625V23.6c2.433.096 3.468 1.204 3.468 2.745h-.006zm-154.661 4.78c-.073 0-.139.054-.145.126v.006a.147.147 0 00.133.157h.005a.143.143 0 00.145-.145c0-.084-.06-.144-.138-.144zm-.006-.006c.006 0 .006.006.006.006.006 0 .006-.006.012-.006h-.018zm9.836 9.873l-.83-.32.228-.86.253-.94a19.434 19.434 0 01-3.558 1.404c-.602.168-1.035.246-1.035.246v.608c-.74.12-1.487.187-2.24.193h-.066a14.676 14.676 0 01-2.24-.193v-.602s-.439-.084-1.04-.252a19.435 19.435 0 01-3.559-1.403l.247.939.235.86-.837.32-.903.343a24.14 24.14 0 003.871 1.601l-.319.867a12.02 12.02 0 004.557.789h.036a12.02 12.02 0 004.557-.789l-.313-.867a24.318 24.318 0 003.865-1.601l-.909-.343zm-14.34.397l1.349-.451-.403-1.325c.885.44 1.8.807 2.745 1.096l-.662 1.806a16.941 16.941 0 01-3.029-1.126zm7.158 2.775l-.03-.024a15.122 15.122 0 01-3.919-.535l.813-2.204a13.1 13.1 0 003.1.397h.066a13.418 13.418 0 003.1-.397l.814 2.204a15.065 15.065 0 01-3.944.56zm4.106-1.613v-.018l-.662-1.806c.945-.289 1.86-.656 2.745-1.096l-.403 1.325 1.366.457a16.72 16.72 0 01-3.046 1.138zM34.381 6.63a6.277 6.277 0 013.805 1.162 7.644 7.644 0 01.981-2.522l-1.366.156-.71-1.523-1.38.71-1.33-1.318-1.33 1.319-1.379-.71-.71 1.522-1.367-.156c.476.776.807 1.631.982 2.522A6.277 6.277 0 0134.38 6.63zm-3.48-.674l.38.042.162-.343.476-1.023.885.457.343.175.277-.253.957-.97.957.97.277.27.343-.174.88-.457.481 1.023.162.343.38-.042.361-.042a8.67 8.67 0 00-.373 1.023 7.603 7.603 0 00-6.93 0 8.639 8.639 0 00-.373-1.023l.356.024zm21.336 13.1l-.163-.199c-1.12-1.427-2.185-2.781-4.087-3.401a2.29 2.29 0 01.24-.18 3.582 3.582 0 001.746-2.409 3.57 3.57 0 00-.722-2.576l-.602-.753-.38.897c0 .054-.668 1.493-2.016 1.493h-.398a3.275 3.275 0 00-.939-2.553 4.3 4.3 0 00-3.094-1.288 4.57 4.57 0 00-.644.048l-.921.18.572.753c.445.602.849 1.644.373 2.204a2.577 2.577 0 01-.77.463c-.603.283-1.47.687-1.47 1.698 0 .656.512 1.342 1.433 1.926 2.715 1.722 4.395 3.498 5.123 5.497 1.126 3.046-.343 4.78-1.77 5.695l-.638.41.56.51c.5.428 1.114.693 1.77.76h.548c.56 0 1.114-.079 1.65-.242a4.247 4.247 0 01-.47.663 4.022 4.022 0 01-3.263 1.396h-.536l-.042.536a2.536 2.536 0 00.897 1.95c.15.133.32.242.5.326a4.692 4.692 0 00-1.415 3.299c0 .68-.156 1.354-.451 1.968l-.602.903h1.071c1.77 0 3.125-.487 4.064-1.457a4.612 4.612 0 001.06-1.806 2.845 2.845 0 001.847.675c.325 0 .65-.043.963-.115l.687-.18-.301-.638a4.532 4.532 0 010-3.161c.223-.662.38-1.349.463-2.047a3.768 3.768 0 001.752.41c1 .012 1.933-.482 2.474-1.319l.331-.602-.602-.253c-2.016-.836-2.462-3.088-2.552-4.304.199.042.397.066.602.072l.169.115c2.19 0 2.925-2.234 2.955-2.33l.247-.789h-.825a5.878 5.878 0 01-4.424-2.245zm2.053 4.756h-.085a2.33 2.33 0 01-1.246-.343s-.319 4.352 2.926 5.7v.018a2.28 2.28 0 01-1.938 1.024 2.725 2.725 0 01-2.282-1 8.538 8.538 0 01-.494 3.01 5.113 5.113 0 000 3.613c-.27.066-.542.102-.819.102a2.04 2.04 0 01-.505-.06 2.373 2.373 0 01-1.698-1.56s.127 4.178-4.744 4.178h-.036c.367-.698.56-1.474.554-2.263.21-3.088 2.306-3.528 2.306-3.528a3.68 3.68 0 01-1.608-.602 1.98 1.98 0 01-.704-1.48 4.603 4.603 0 003.69-1.596 4.704 4.704 0 001.078-2.227 4.196 4.196 0 01-2.703.836h-.494a2.611 2.611 0 01-1.426-.602c1.854-1.204 3.154-3.262 2.004-6.387-.927-2.504-3.148-4.377-5.382-5.785-.74-.458-1.186-.976-1.186-1.421 0-1.048 1.487-1.078 2.101-1.806.705-.819.265-2.143-.349-2.938.175-.03.355-.042.53-.042a3.66 3.66 0 012.673 1.114c.71.674.981 1.691.71 2.63l.325.067c.199.036.398.054.602.06h.133c1.764 0 2.558-1.848 2.558-1.848s1.879 2.311-.885 4.117c-.475.308-.686.603-.602.903l.042.2.2.035c2.004.542 3.01 1.927 4.255 3.498a6.484 6.484 0 004.87 2.468h.037s-.602 1.915-2.408 1.915z" fill="#222220"/><path d="M50.425 15.726a5.506 5.506 0 011.715 1.535c.343.53.831.95 1.409 1.204.217.072.452.108.68.108.921 0 1.764-.524 2.186-1.342l.349-.783-.85-.048a4.064 4.064 0 01-2.347-1.343 2.417 2.417 0 00-1.752-.776 2.753 2.753 0 00-1.45.44l-.783.547.843.458zm1.408-.861l-.018.006c.512 0 .994.223 1.337.602a4.613 4.613 0 002.727 1.517 1.885 1.885 0 01-1.65.993c-.168 0-.337-.03-.5-.084-.975-.331-1.318-1.806-3.01-2.697a2.085 2.085 0 011.114-.337zm-1.011 8.62l-.012-.011c-.494-3.974-3.377-6.845-6.586-8.585a15.592 15.592 0 00-.837-.421 4.626 4.626 0 003.769-.886s-1.86 1.367-5.665.127c1.053.686 3.1 1.65 4.972 3.215 4.672 4.105 1.33 8.115 1.33 8.115a4.915 4.915 0 001.259-5.166 9.611 9.611 0 011.36 5.46c-.132 3.155-1.884 5.912-3.69 8.11a5.417 5.417 0 00-1.071 2.372 7.224 7.224 0 011.372-2.342c1.957-2.294 3.612-4.672 3.847-8.097.205.602 1.036 2.354 2.36 3.01 0 0-1.662-1-2.408-4.9zM25.899 38.17a4.733 4.733 0 01-.452-1.97 4.697 4.697 0 00-1.42-3.298c.18-.084.349-.193.5-.325a2.536 2.536 0 00.896-1.95l-.036-.537h-.542a4.037 4.037 0 01-3.256-1.396 4.703 4.703 0 01-.47-.662 5.67 5.67 0 001.65.24h.547a3.232 3.232 0 001.776-.758l.56-.512-.638-.41c-1.433-.914-2.896-2.648-1.77-5.694.728-1.98 2.408-3.769 5.147-5.49.921-.602 1.427-1.27 1.427-1.927 0-1.011-.849-1.415-1.469-1.697a2.58 2.58 0 01-.77-.464c-.482-.56-.079-1.625.373-2.203l.602-.753-.927-.18a3.82 3.82 0 00-.644-.049 4.265 4.265 0 00-3.137 1.24 3.275 3.275 0 00-.97 2.559h-.36c-1.355 0-1.993-1.433-2.017-1.493l-.38-.897-.601.753a3.594 3.594 0 00-.717 2.576 3.574 3.574 0 001.74 2.408c.084.054.169.115.24.18-1.901.603-2.967 1.975-4.087 3.402l-.162.205a5.89 5.89 0 01-4.431 2.245h-.825l.253.789c0 .096.758 2.33 2.956 2.33h.108a3.28 3.28 0 00.602-.073c-.09 1.204-.536 3.468-2.558 4.305l-.602.253.33.602a2.898 2.898 0 002.475 1.318 3.743 3.743 0 001.746-.41c.084.699.24 1.385.463 2.048a4.532 4.532 0 010 3.16l-.3.638.686.18c.313.073.638.115.963.115a2.845 2.845 0 001.848-.674c.21.674.572 1.294 1.06 1.806.945.97 2.3 1.45 4.063 1.457h1.072l-.542-.987zm-.518.337c-4.87 0-4.75-4.178-4.75-4.178a2.373 2.373 0 01-1.697 1.559 2.04 2.04 0 01-.506.06 3.34 3.34 0 01-.813-.102c.44-1.162.44-2.45 0-3.612a8.533 8.533 0 01-.487-3.01 2.725 2.725 0 01-2.282.999h-.03a2.288 2.288 0 01-1.945-1.03c3.245-1.348 2.926-5.7 2.926-5.7a2.333 2.333 0 01-1.246.343h-.066c-1.806 0-2.408-1.915-2.408-1.915h.036a6.47 6.47 0 004.876-2.462c1.24-1.571 2.252-2.956 4.256-3.498l.199-.036.042-.198c.054-.307-.156-.602-.602-.903-2.763-1.806-.885-4.118-.885-4.118s.783 1.848 2.559 1.848h.084a4 4 0 00.602-.06l.325-.066c-.277-.94 0-1.957.71-2.631a3.66 3.66 0 012.673-1.114c.175 0 .356.012.53.042-.602.801-1.047 2.125-.343 2.938.602.704 2.095.735 2.095 1.806 0 .446-.415.963-1.156 1.427-2.24 1.409-4.46 3.28-5.382 5.785-1.15 3.125.15 5.201 2.005 6.387a2.658 2.658 0 01-1.427.602h-.5a4.198 4.198 0 01-2.703-.836 4.752 4.752 0 001.072 2.227 4.634 4.634 0 003.696 1.595 1.98 1.98 0 01-.704 1.481c-.482.325-1.03.53-1.607.602 0 0 2.1.428 2.33 3.528a4.787 4.787 0 00.553 2.264l-.03-.024z" fill="#222220"/><path d="M14.527 18.567h.006c.229 0 .464-.036.68-.108a3.22 3.22 0 001.409-1.204 5.429 5.429 0 011.71-1.535l.842-.452-.782-.548a2.749 2.749 0 00-1.445-.44 2.4 2.4 0 00-1.752.783 4.08 4.08 0 01-2.341 1.343l-.85.042.344.783a2.462 2.462 0 002.179 1.336zm1.084-3.094a1.78 1.78 0 011.33-.602c.391.006.777.126 1.108.337-1.704.909-2.06 2.366-3.01 2.697a1.518 1.518 0 01-.494.084 1.879 1.879 0 01-1.661-1 4.613 4.613 0 002.727-1.516zm2.75 9.885a9.564 9.564 0 011.361-5.46 4.915 4.915 0 001.259 5.165s-3.348-4.01 1.33-8.115c1.872-1.566 3.913-2.529 4.967-3.215-3.805 1.24-5.665-.126-5.665-.126a4.612 4.612 0 003.762.885 22.62 22.62 0 00-.837.42c-3.208 1.747-6.11 4.618-6.585 8.592v-.03c-.747 3.9-2.408 4.9-2.408 4.9 1.318-.65 2.155-2.408 2.353-3.01.223 3.431 1.897 5.81 3.853 8.097a7.337 7.337 0 011.373 2.342 5.393 5.393 0 00-1.084-2.36c-1.806-2.198-3.552-4.955-3.678-8.085zM33.28 18.11a.977.977 0 01.801-.265v1.138a1.697 1.697 0 01-.216.8H35a1.696 1.696 0 01-.216-.8v-1.138a.971.971 0 01.794.265v-.789h-2.3v.789zm-.475-5.46h-.012c.175.15.38.27.602.342l.145.067v-.747l-1.337-.56c.066.374.283.699.602.897zm3.173-.007l-.006.006c.319-.198.535-.523.602-.897l-1.337.56v.74l.139-.066a1.76 1.76 0 00.602-.343z" fill="#222220"/><path d="M38.373 9.627c0-1.125-1.897-2.137-3.986-2.137-2.089 0-3.985 1.012-3.985 2.137l.042.277.837 4.816-.837.488-2.185 1.24s-.488.253-.716.403c-.825.602-1 1.41-.524 1.758.12-.819.837-1.42 1.667-1.396a2.163 2.163 0 011.728.939c.12.144.229.3.325.457.127.205.253.385.38.56h-5.575c.47.807.74 1.716.8 2.649v12.383c0 3.01 2.306 4.425 4.816 4.425 1.927 0 2.186-.09 3.245.97 1.06-1.06 1.319-.97 3.245-.97 2.492 0 4.816-1.427 4.816-4.425V21.83c.06-.933.331-1.842.8-2.649h-5.634c.127-.174.253-.355.38-.56.102-.156.21-.313.325-.457a2.183 2.183 0 011.733-.94 1.638 1.638 0 011.668 1.397c.481-.343.307-1.204-.524-1.758a8.15 8.15 0 00-.71-.403l-2.167-1.276-.837-.488.837-4.816.036-.253zm-7.164.554l2.938.994v4.61l-2.162-1.143-.776-4.46zm-4.461 9.8h5.063c.391.41.873.735 1.402.94a1.8 1.8 0 00.079 1.204c.192.403.535.716.957.879.078.692.548 1.27 1.204 1.499-.361.367-.717.71-.861.849l-3.365-.054a.585.585 0 01-.265-.247v-.042l.548.09h.036a.215.215 0 00.217-.18.223.223 0 00-.181-.254l-.674-.108.746-2.588-.71-1.494-1.138 1.204-.072 2.692-.765-.12a.214.214 0 00-.253.174v.006c-.018.12.06.228.181.252l.32.049a1.26 1.26 0 00-.2.126l-.066.048v.079a1.77 1.77 0 00.692 1.806v.096a.443.443 0 00.362.5h.072a.425.425 0 00.415-.338c.145.006.283.006.428 0h.09l4.413.801.072-.048c.35-.247 1.692-1.204 2.131-1.547.127.108.271.204.422.277a1.81 1.81 0 00.409 1.806H27.15V21.83a5.446 5.446 0 00-.403-1.848zm10.499 5.955c-.458.337-1.583 1.155-1.993 1.445l-4.003-.699v-.108a3.82 3.82 0 00.108-.825l3.371.054.067-.066c.054-.054 1.12-1.084 1.661-1.68.145.181.313.332.506.452a1.927 1.927 0 00.283 1.427zm-6.689-.723v.018c.09.169.223.313.386.41-.006.247-.03.487-.072.728 0 .054 0 .108-.043.163v.084a2.64 2.64 0 01-.812-.127 1.3 1.3 0 01-.674-1.33 1.67 1.67 0 01.722-.283.501.501 0 01.493.337zm-.415-.8l.066-2.547.602-.602.368.765-.717 2.48-.319-.096zm7.074 13.412h-.578l.451-1.475c.072-.204-.3-.47-.457-.704.367.223.746.421 1.138.602 0 .048-.554 1.577-.554 1.577zm1.547-1.65l-.048-.041-.313 1.625c-.199 0-.41.042-.602.054l.33-1.565c.097-.463-1.15-.602-1.763-1.523a1.927 1.927 0 01-1.439.44 7.284 7.284 0 01-1.354-.145 1.509 1.509 0 00-.235 0 .504.504 0 00-.464.247l-.09.15-1.716-.415-.41.71a.247.247 0 00.031.313l.114.127a2.394 2.394 0 01-.433.602l-.253-.313a.91.91 0 01.042-1.012l.674-1.138 1.44.217-.224-.512c-.3-.674.157-1.535.205-2.028 0 .15-.156.18-.313.18h-.415a.26.26 0 00-.097 0l-.39.235-.308-.283a.218.218 0 01.042-.265l.71-.8-.842-.982 1.204.602.361-.433c.096.096.054.35.054.35a1.92 1.92 0 011.457 1.914v.174a.87.87 0 00.53.38l1.631.162a5.61 5.61 0 01.994-.21c.288 0 .578.09.818.246a.762.762 0 01.392-.132h.054c.728 0 1.035.662 1.427 1.204.294.415.692 1.041.692 1.041a.61.61 0 01-.506.271 1.235 1.235 0 01-.21 0c-.783-.145-.897-1.758-1.343-1.884h-.072a.234.234 0 00-.205.126c.205.548.084.77.307 1.204.163.259.367.494.602.692 0 0-.03.241-.066.416zM29.993 34.6h-.012l.072.186c-.048.163-.602.398-.602.398l-.12-.265a.89.89 0 01.288-1.06l.91-.554.969.205a.86.86 0 00.168.536l-1.017-.193-.602.422a.258.258 0 00-.054.325zm11.643-.392a3.398 3.398 0 01-2.74 3.468l.277-1.457c0-.084.03-.187.042-.271.085.036.169.06.253.078.097.006.193.006.29 0 .33 0 .643-.15.842-.415l.217-.253-.18-.247s-.404-.638-.705-1.06l-.169-.252c-.337-.506-.764-1.144-1.613-1.144h-.078c-.12.006-.247.03-.362.072a1.89 1.89 0 00-.83-.192 2.56 2.56 0 00-.85.162l-.144.042-1.589-.156a.401.401 0 01-.162-.139l.343-.138c-.097-1.15-1.204-1.854-1.806-2.09a.67.67 0 00-.181-.324l-.343-.325-.301.361-.15.18-2.228-.915L30.919 31l-.571.866a.314.314 0 000 .446l.602.41.602-.23h.06c0 .09-.066.458-.096.56l-1.048-.18-1.12.602a1.325 1.325 0 00-.427 1.637l.127.271.174.385.391-.162c-.144.391-.084.825.169 1.156l.235.3.313.398.349-.373c.229-.229.41-.494.536-.789l.072-.24-.169-.187v-.036l.193-.313 1.39.325.314.072.168-.277.09-.15c0-.03 0-.037.085-.037h.15a7.73 7.73 0 001.44.15c.324.019.65-.017.962-.114l.77.88-.457 1.408v.084a2.407 2.407 0 00-1.806.771c-.74-.734-1.264-.813-3.244-.813-2.378 0-3.986-1.39-3.986-3.612V28.79h14.448v5.418zm.39-14.225a5.247 5.247 0 00-.403 1.848v4.058a1.21 1.21 0 01-.95-1.096v-.187h-.181a1.284 1.284 0 01-.82-.391 1.709 1.709 0 01-.414-1.096c-.26.422-.235.963.066 1.36.235.296.578.494.95.543a1.59 1.59 0 001.367 1.33v1.987h-2.528a1.396 1.396 0 01-.644-1.806l.096-.217-.222-.084a1.42 1.42 0 01-.892-1.764l.049-.18-.169-.08a1.801 1.801 0 01-.879-1.805 1.11 1.11 0 00-.204 1.27c-.12.139-.277.301-.452.482a1.405 1.405 0 01-1.114-1.325v-.15l-.138-.054a1.391 1.391 0 01-.843-.699 1.376 1.376 0 01-.06-.879c.12.024.24.043.361.055.12.006.247.006.367 0a3.44 3.44 0 002.553-1.144l5.105.024zm-3.9-4.106l.987.602.247.145a2.902 2.902 0 00-1.343.8l-.042.036a5.22 5.22 0 00-.24.277l-.049.06c-.078.097-.15.2-.216.308l-.036.054a6.01 6.01 0 00-.241.385 3.55 3.55 0 01-2.824 1.939 3.55 3.55 0 01-2.823-1.939c-.078-.132-.157-.259-.235-.385l-.048-.067-.193-.313-.054-.066a5.457 5.457 0 00-.235-.27l-.042-.043a2.9 2.9 0 00-1.342-.8l.253-.145.993-.602 1.017-.602 2.715 1.475 2.715-1.427 1.036.578zm-1.337-1.204l-2.16 1.138v-4.63l2.93-.993-.77 4.485zm-2.408-3.98l-3.214-1.287c.27-.65 1.535-1.204 3.214-1.204 1.68 0 2.944.553 3.215 1.204l-3.215 1.288z" fill="#222220"/></svg>