<svg width="200" height="50" fill="none" xmlns="http://www.w3.org/2000/svg"><path d="M45 16.65h10.34a52.63 52.63 0 0019.42 19.42v10.34A47.71 47.71 0 0145 16.65zm29.79 0H55.34A51.572 51.572 0 0149.88 3h11.23a13.68 13.68 0 0113.68 13.65zM74.68 3a18.07 18.07 0 0013.75 13.75V3H74.68z" fill="#00AFAA"/><path d="M74.79 16.65v19.42a52.63 52.63 0 01-19.42-19.42h19.42zm36.32 3.2v13.88h-4.25V19.85h-4.49v-3.26h13.23v3.25l-4.49.01zm26.61-1.71a8.35 8.35 0 015-1.84c4.91 0 7.24 3.46 7.24 8.42 0 6.27-3.52 9.47-8.61 9.47s-7.77-3.2-7.77-10.58c0-6.14 1.39-10.37 3.52-12.33 2.44-2.26 3.2-2.2 6.06-2.94 1.76-.45 3.46-.73 4.12-1l1.55 3.52c-.84.5-2.41.87-5.54 1.5-3.62.71-5.25 2-5.62 5.75l.05.03zm3.88 12.6c2.81 0 3.86-2.28 3.86-5.54 0-2.94-.87-5.35-3.7-5.35a5.32 5.32 0 00-3.57 1.1 29.035 29.035 0 00-.13 4c-.06 3.51 1.08 5.79 3.54 5.79zm-13.7 3l-5.72-8v8h-4.3V16.59h4.3v7.51l5.09-7.51H132l-5.54 7.77 6.51 9.4h-5l-.07-.02z" fill="#00539B"/><path d="M88.43 30.27V41.5A52.471 52.471 0 0174.79 36V16.65a13.63 13.63 0 0113.64 13.62z" fill="#F39A00"/></svg>