<svg width="200" height="50" fill="none" xmlns="http://www.w3.org/2000/svg"><path d="M70.66 37.47a12.85 12.85 0 01-9-3.28 12.002 12.002 0 01-3.9-9.56 12.42 12.42 0 012.89-8.29 12.22 12.22 0 017-4 13.59 13.59 0 019.82 1.43 11.6 11.6 0 016 10c.2 3.87-.72 7.35-3.58 10.11a12.92 12.92 0 01-9.13 3.54l-.1.05zm.17-19.29A5.7 5.7 0 0065 22.42a7.88 7.88 0 000 4.75 5.69 5.69 0 0010.24 1.56 7.39 7.39 0 00.33-7.38 5.24 5.24 0 00-4.91-3.12l.17-.05zM125 27.13c-1.24.07-2.41.16-3.71.23v9.52h-7V12.76h6.86v8.91c1.493.13 2.997.008 4.45-.36a5.225 5.225 0 003.58-3.64c.46-1.59.65-3.25 1-5h6.37c.13 5-.85 9.36-5.59 12.06.2.36.33.65.52.94 2 3.25 3.9 6.5 5.85 9.78.226.454.423.922.59 1.4h-7.31c-1.89-3.19-3.77-6.47-5.66-9.75l.05.03zm30.95-4.71c.049-.692.049-1.387 0-2.08a2.818 2.818 0 00-2.11-2.24 13 13 0 00-5.69-.55 13.868 13.868 0 00-5.17 1.37c-.29-1.72-.59-3.35-.91-5a16.228 16.228 0 014.42-1.4 22.49 22.49 0 019.65.13c3.38.85 5.75 2.8 6.4 6.37.135.893.188 1.797.16 2.7v9c.13 1.85.29 2 2.18 2.34v3.84a8.45 8.45 0 01-5.72-.16 3.425 3.425 0 01-1.82-2.54 4.654 4.654 0 01-.1-.78c-2.31 3.32-5.59 4.13-9.23 3.93-4.06-.23-7.18-3-7.77-6.18-.94-5.23 1.72-9.13 7-9.95 3.41-.49 4.36-.26 8.68 1.2h.03zM155.9 27a8.002 8.002 0 00-3.67-1.33 4.997 4.997 0 00-3.87.81 3.118 3.118 0 00-1.08 3.52 2.915 2.915 0 002.6 2 7.121 7.121 0 003.48-.52A3.849 3.849 0 00155.9 27zm-53.84-14.27h6.76v24.18H102v-7.73c-1.27.29-2.41.62-3.61.78-3.12.42-6.08 0-8.58-2a10.28 10.28 0 01-3.45-6.18c-.59-3-.23-6-.33-9h7.05v1.07c0 2 0 3.9.1 5.88A4.421 4.421 0 0097.81 24a6.93 6.93 0 004.26-1.3l-.01-9.97zM48.91 36.82h-6.79V18.91H35v-6.15h21v6.08h-7.09v17.98z" fill="#333"/></svg>