<svg width="40" height="40" fill="none" xmlns="http://www.w3.org/2000/svg"><rect width="40" height="40" rx="5" fill="#4D76A1"/><path fill-rule="evenodd" clip-rule="evenodd" d="M19.722 27.933h1.676s.507-.056.765-.334c.238-.256.23-.737.23-.737s-.032-2.25 1.012-2.58c1.03-.327 2.35 2.174 3.752 3.135 1.059.728 1.864.568 1.864.568l3.745-.052s1.96-.12 1.03-1.661c-.076-.126-.54-1.14-2.784-3.223-2.349-2.18-2.034-1.827.795-5.597 1.722-2.297 2.411-3.698 2.196-4.299-.205-.572-1.472-.42-1.472-.42l-4.217.026s-.313-.043-.545.096c-.226.136-.372.452-.372.452s-.668 1.777-1.558 3.289c-1.878 3.188-2.629 3.357-2.935 3.159-.714-.462-.536-1.854-.536-2.843 0-3.09.469-4.38-.913-4.713-.458-.11-.796-.184-1.968-.195-1.505-.016-2.778.004-3.5.357-.48.236-.85.759-.624.79.279.036.91.17 1.245.625.432.588.417 1.908.417 1.908s.248 3.638-.58 4.09c-.569.31-1.348-.323-3.023-3.216-.857-1.482-1.505-3.12-1.505-3.12s-.125-.306-.348-.47c-.27-.198-.648-.261-.648-.261l-4.007.026s-.602.017-.822.278c-.197.233-.016.714-.016.714s3.137 7.34 6.69 11.04c3.257 3.39 6.956 3.168 6.956 3.168z" fill="#fff"/></svg>