<svg width="200" height="50" fill="none" xmlns="http://www.w3.org/2000/svg"><path d="M73.073 11.992c2.351-.664 4.798-.958 7.239-.989 2.042-.018 4.1.034 6.108.442 1.202.235 2.425.667 3.29 1.572.992.927 1.23 2.364 1.208 3.662-.015 1.257-.404 2.617-1.418 3.435-.605.48-1.31.84-2.067.998l-.021.152c1.631.315 3.305 1.078 4.208 2.54.704 1.232.818 2.709.713 4.096-.102 1.369-.658 2.743-1.708 3.655-.97.859-2.23 1.291-3.476 1.572-1.557.33-3.151.445-4.74.495-3.225.151-6.481-.146-9.595-1.014.204-1.486.547-2.953.79-4.433a5.88 5.88 0 011.119.136c1.922.438 3.874.837 5.855.806 1.047.01 2.122-.046 3.12-.408.58-.222 1.199-.611 1.35-1.26.198-.8.133-1.755-.45-2.389-.57-.636-1.434-.877-2.25-.997-1.98-.303-3.995-.13-5.99-.192.005-1.273.021-2.543-.013-3.812 1.671-.01 3.343.034 5.014-.044.81-.08 1.715-.287 2.216-.991.722-.927.5-2.611-.662-3.08-.68-.337-1.461-.396-2.209-.4-2.243-.043-4.442.458-6.633.875-.352-1.474-.587-2.972-.998-4.427zm34.998-.732c3.686.024 7.375.009 11.061.006.006.964-.006 1.928.006 2.892-2.743-.016-5.49-.01-8.233-.003-.004 1.924-.01 3.852 0 5.78 1.501.003 3.003-.006 4.504.003 1.458.04 3.019.473 3.973 1.65 1.091 1.316 1.298 3.096 1.307 4.742.019 1.527-.077 3.13-.778 4.514a4.486 4.486 0 01-2.624 2.166c-.775.24-1.594.309-2.4.303-2.274 0-4.548-.003-6.819 0 .013-7.35.006-14.7.003-22.053zm2.821 11.31c.009 2.682.019 5.36-.003 8.042 1.248.025 2.493.025 3.741.01.881-.037 1.876-.186 2.469-.912.738-.855.806-2.048.813-3.123.006-1.103-.112-2.327-.89-3.18-.664-.67-1.635-.824-2.537-.824-1.195-.01-2.394.009-3.593-.013zm42.395-11.307c.924.018 1.85.015 2.777-.003.047 5.196.01 10.396.022 15.592-.012 2.157.025 4.31-.019 6.464-.923-.003-1.85-.01-2.774.003-.04-3.535-.016-7.072-.012-10.607-3.05 0-6.102.007-9.152-.003.025 3.297 0 6.597.016 9.893 0 .244-.047.485-.084.726-.917-.025-1.835 0-2.752-.015.006-7.344-.019-14.691.012-22.035.933-.003 1.869-.003 2.802.003.043 2.96-.015 5.92.031 8.876 3.046-.012 6.09 0 9.136-.003a497.207 497.207 0 01-.003-8.891zm6.93 0c.93.012 1.863.018 2.793 0 .098 3.25-.044 6.506.071 9.756.516-.188.766-.7 1.103-1.096 1.785-2.256 3.602-4.486 5.385-6.748.525-.62.976-1.31 1.563-1.875 1.094-.068 2.193-.003 3.29-.016-.661 1.038-1.529 1.919-2.295 2.88-1.113 1.282-2.144 2.635-3.263 3.911-.89 1.125-1.866 2.181-2.74 3.318.979 1.335 1.915 2.704 2.873 4.054 1.526 2.042 2.932 4.17 4.449 6.222.383.544.729 1.115 1.18 1.61-1.103.05-2.212.05-3.312.012-.587-.723-1.078-1.52-1.631-2.268-1.814-2.576-3.664-5.131-5.469-7.717-.268-.377-.528-.76-.821-1.122-.084-.003-.251-.006-.331-.01-.052 2.513-.006 5.028-.022 7.543-.018 1.198.05 2.4-.049 3.599-.921-.019-1.841-.003-2.762-.01-.028-7.343-.009-14.693-.012-22.043zm-134.84.027c3.874.007 7.749.004 11.623 0 1.671.028 3.432.158 4.909 1.017 1.193.683 1.968 1.971 2.126 3.324.185 1.406.099 2.979-.804 4.14-.497.723-1.285 1.18-2.091 1.477.744.26 1.514.513 2.132 1.02 1.238.939 1.78 2.549 1.78 4.06.083 1.513-.094 3.107-.863 4.439-.735 1.245-2.122 1.95-3.494 2.25-1.078.268-2.2.311-3.31.305-3.988.01-7.976-.006-11.965.01-.015-.291-.034-.578-.04-.866-.003-7.06.015-14.119-.003-21.175zm6.927 4.048c0 1.532-.007 3.065.003 4.597 1.047-.015 2.097.028 3.142-.018 1.063-.038 1.91-1.036 1.968-2.061.034-.68-.059-1.446-.56-1.953-.438-.436-1.08-.575-1.68-.571-.955.003-1.913.003-2.873.006zm.003 8.635c-.006 1.78-.01 3.562.003 5.342 1-.006 2.002.003 3.003-.003.503-.019 1.023-.01 1.495-.204 1.594-.525 2.04-2.784 1.09-4.057-.5-.763-1.448-1.093-2.329-1.09-1.087.018-2.175 0-3.262.012zm14.517-12.676c2.74-.016 5.478.009 8.222-.013 1.6 4.146 3.05 8.351 4.581 12.525a5.73 5.73 0 00.226-.018c1.205-4.177 2.608-8.296 3.813-12.47 2.453-.068 4.909-.012 7.365-.027-.164.797-.538 1.526-.825 2.28-1.838 4.78-3.701 9.546-5.546 14.32-.772 2.048-2.4 3.729-4.377 4.646-1.394.69-2.945 1.014-4.49 1.1-2.728.068-5.453-.262-8.125-.788.445-1.449.877-2.904 1.202-4.384 1.334.297 2.672.674 4.053.668 1.162.018 2.398.018 3.448-.544.513-.25.844-.732 1.19-1.165-1.595-.16-3.186-.778-4.323-1.937-.772-.763-1.09-1.829-1.517-2.796-1.492-3.398-2.96-6.803-4.43-10.208-.18-.39-.35-.778-.466-1.19zm82.092-.037c1.107.037 2.216-.019 3.325.034.046.027.136.086.182.117 1.427 5.163 2.92 10.313 4.341 15.479.655 2.128 1.192 4.288 1.832 6.42-.998 0-1.996 0-2.997.003-.426-1.734-.939-3.442-1.365-5.175-.075-.278-.127-.569-.291-.81-2.24-.018-4.477.013-6.716-.012-.628 1.971-1.097 3.989-1.626 5.987-.994.013-1.989.016-2.984 0 1.325-4.683 2.648-9.37 3.985-14.05.776-2.664 1.483-5.349 2.314-7.993zm1.128 5.243c-.763 2.73-1.557 5.456-2.286 8.196 1.909.043 3.815-.01 5.725.025-.998-3.417-1.845-6.878-2.818-10.304-.269.674-.439 1.381-.621 2.083zm-31.661 3.15c.738-.23 1.57-.2 2.27.134 1.017.46 1.771 1.495 1.823 2.62.04 1.01-.358 2.082-1.186 2.697-.806.646-1.943.812-2.92.513-1.1-.371-1.996-1.375-2.132-2.54-.231-1.464.727-2.994 2.145-3.423zM25 37.064c5.218-.068 10.436-.009 15.655-.027H164.72c3.426.018 6.853-.044 10.279.03-.08.794-.043 1.592-.043 2.389-12.022.024-24.046.003-36.067.009-37.965-.01-75.926.01-113.89-.01v-2.39z" fill="#067941"/></svg>