<svg width="200" height="50" fill="none" xmlns="http://www.w3.org/2000/svg"><path d="M35 43.628l18.801-.026-.013-18.61C49.87 32.423 42.531 37.247 35 39.098c.026 1.404 0 4.531 0 4.531z" fill="#008FB4"/><path d="M41.012 34.26c7.096-3.587 10.517-10.135 10.517-10.135l-.025-2.196c-3.906-1.378-7.454-3.395-10.48-6.407a6892.59 6892.59 0 01-.012 18.737zM42.02 6.09s0 5.692-.013 7.109c1.877 1.736 2.808 2.54 4.748 3.778l.013-7.633c-2.208-1.212-3.063-1.85-4.748-3.255z" fill="#008FB4"/><path d="M69.922 12.088c-.166-1.02-.74-1.697-1.698-2.016-.472-.153-.995-.243-1.634-.281a6.87 6.87 0 00-1.148.038h-.153V7.61l1.812.012 2.004.28.076-1.812h-6.19l.242 2.26.026 5.054-.28 2.4h.357s.842-.013 1.25 0c.218 0 .434.012.651.025.307.013.613.039.92.039h.217c1.161-.026 2.054-.32 2.718-.881 1.008-.88.957-2.068.83-2.898zm-2.017.498c0 .217-.013.396-.038.562-.077.46-.32.778-.715.944-.523.23-1.098.281-1.876.192v-2.885c.702-.09 1.391-.115 2.03.204.408.217.6.536.6.983zM76.061 7.2L75.768 6l-2.043.026-.23 1.059-2.463 6.382-1.072 2.285 2.132.038.37-1.749.51-1.327h3.064l.702 1.697.37 1.366h2.757l-.945-1.62L76.061 7.2zm-.6 4.033c-.319 0-.65.013-.983.026-.319.012-.65.012-.957.025.192-.46.383-.932.575-1.391.153-.345.293-.69.433-1.034l.932 2.374zm20.372 4.544l2.808-.025-4.468-5.068 4.2-4.62-2.464.013-.74 1.033s-1.889 2.081-2.91 3.217V7.812l.293-1.723h-2.578l.153 1.698.039 5.986-.192 1.991h2.578l-.28-1.978v-2.374l3.56 4.365zm-7.633-2.91c0-.651.025-5.016.025-5.016l.23-1.736h-2.553l.204 1.685s0 1.276.013 2.042h-3.612c-.026-1.098-.013-2.221.268-3.319l.102-.395h-2.655l.039.357c.012.128.166 1.468.191 2.093.038 1.302.026 2.642.013 3.919v.293c0 .55-.128 2.234-.192 2.54l-.076.37h2.565l-.038-.357-.077-.676c-.063-.498-.127-.983-.153-1.455a18.711 18.711 0 01-.013-1.468v-.345h3.677c0 .243 0 .485.012.728.013 1.097.026 2.144-.255 3.178l-.102.396h2.68l-.09-.383c-.178-.894-.203-1.787-.203-2.451zm32.165 7.684l.076-.383h-5.475l.038.357a95.48 95.48 0 01.434 4.71c.064 1.098.051 2.221.038 3.319 0 .383-.013.778-.013 1.161h-10.236c-.051-3-.089-6.1.689-9.139l.102-.395h-5.641l.051.357c0 .038.421 3.689.485 5.425.102 3.344.076 6.752.038 10.045v.778c-.013 1.443-.332 5.82-.485 6.6l-.077.382h5.438l-.039-.357c-.063-.575-.14-1.136-.204-1.698-.166-1.25-.319-2.54-.395-3.79-.077-1.264-.051-2.566-.039-3.817 0-.46.013-.919.013-1.379h10.403c0 .78 0 1.57.012 2.336.039 2.872.077 5.578-.663 8.31l-.115.408h5.654l-.076-.383c-.447-2.323-.524-4.633-.537-6.382-.012-1.748 0-9.47.077-11.615.064-2.042.204-3.625.447-4.85zm-33.39 20.345v-8.373c2.616.077 7.607.473 7.658.473l.344.025.013-3.829-8.016.46v-6.6c2.387-.025 6.867-.05 9.19.664l.358.115.05-.37c.167-1.213.052-2.91.04-2.974l-.026-.294H82.124l.064.37c.485 3.102.46 6.242.421 9.28-.013.702-.013 1.404-.013 2.119.039 4.493-.446 11.398-.46 11.462l-.025.344 14.385.064.013-.319c.025-.766.09-2.82.128-3.114l.05-.434-.433.089c-2.86.574-5.565.83-9.28.842zM74.682 30.558c.064-.039.127-.09.191-.128 1.302-.88 2.796-2.183 2.885-4.404.127-3.063-1.545-5.233-4.595-5.935-2.63-.612-5.335-.51-8.271.294l-.038.013c-1.417.395-1.66.523-1.621.855.076.625.204 1.314.319 1.991.089.498.178.996.242 1.48a.49.49 0 00.32.384c.165.05.357 0 .472-.128l.178-.192c1.379-1.455 3.178-2.131 5.463-2.093 1.455.026 2.668.945 2.949 2.234.383 1.774-.268 3.319-1.634 3.931-.664.294-1.43.51-2.349.677-.893.153-2.655.28-2.68.28l-.32.026.128 3.012.32-.013c.012 0 1.582-.05 2.897-.05.587 0 2.489.127 3.459.714.855.51 1.468 1.353 1.646 2.247.256 1.34.485 4.53-2.999 5.297-3.012.663-5.476 0-7.301-1.966-.153-.166-.32-.332-.498-.536l-.191-.204a.416.416 0 00-.447-.115.448.448 0 00-.294.357l-.089.74c-.09.728-.166 1.404-.28 2.068-.09.575.101.958.65 1.251 2.03 1.11 4.276 1.672 6.676 1.672.46 0 .919-.025 1.391-.064 1.927-.166 3.702-.868 5.118-2.042 2.068-1.697 3.013-3.752 2.783-6.114-.179-2.718-1.71-4.582-4.48-5.54zm68.938 2.935V30.61c-.013-3.344-.026-6.803.574-10.046l.064-.382h-5.642l.077.383c.191 1.008.357 2.08.485 3.178.038.344 0 .51-.179.702a345.491 345.491 0 00-5.233 5.756 418.752 418.752 0 01-4.774 5.259 84.33 84.33 0 00-.025-4.39c-.077-3.613-.141-7.034.753-10.467l.102-.409h-5.782l.127.409c.536 1.761.536 3.484.549 5.31v1.761c.013 3.076.026 6.254-.013 9.369 0 .472.013.944.026 1.404.026.868.051 1.748-.038 2.616-.051.524-.179 1.034-.307 1.57-.063.243-.114.498-.166.753l-.076.383h5.565l-.064-.37a50.5 50.5 0 01-.281-2.272c-.051-.434-.089-.855-.14-1.289a.837.837 0 01.166-.562 510.85 510.85 0 004.659-5.143c1.71-1.915 3.484-3.88 5.297-5.833v3.242c-.013 1.046 0 2.106.012 3.127.013 1.582.039 3.216-.038 4.812-.038.88-.191 1.748-.345 2.667-.076.409-.14.83-.204 1.238l-.051.37h5.54l-.077-.382c-.574-3.09-.561-6.535-.561-9.88zm14.244-10.172c0-.052 0-.115.013-.192l7.122.92-.459-3.907h-17.806l-.396 3.906 7.62-.919v14.896l-.74 5.769h5.399l-.676-5.667c0-.115-.064-9.93-.077-14.806z" fill="#191646"/></svg>